<svg width="161" height="112" viewBox="0 0 161 112" fill="none" xmlns="http://www.w3.org/2000/svg">
<path d="M73.5938 46.4688V65.1719C73.5938 73.2865 72.7279 80.2878 70.9961 86.1758C69.2643 92.0143 66.7656 96.8138 63.5 100.574C60.2839 104.285 56.4492 107.031 51.9961 108.812C47.543 110.594 42.5951 111.484 37.1523 111.484C32.7982 111.484 28.7409 110.94 24.9805 109.852C21.2201 108.714 17.8307 106.957 14.8125 104.582C11.8438 102.207 9.27083 99.2135 7.09375 95.6016C4.96615 91.9401 3.33333 87.5859 2.19531 82.5391C1.05729 77.4922 0.488281 71.7031 0.488281 65.1719V46.4688C0.488281 38.3542 1.35417 31.4023 3.08594 25.6133C4.86719 19.7747 7.36589 15 10.582 11.2891C13.8477 7.57812 17.707 4.85677 22.1602 3.125C26.6133 1.34375 31.5612 0.453125 37.0039 0.453125C41.3581 0.453125 45.3906 1.02214 49.1016 2.16016C52.862 3.2487 56.2513 4.95573 59.2695 7.28125C62.2878 9.60677 64.8607 12.6003 66.9883 16.2617C69.1159 19.8737 70.7487 24.2031 71.8867 29.25C73.0247 34.2474 73.5938 39.987 73.5938 46.4688ZM52.1445 67.9922V43.5742C52.1445 39.6654 51.9219 36.2513 51.4766 33.332C51.0807 30.4128 50.4622 27.9388 49.6211 25.9102C48.7799 23.832 47.7409 22.1497 46.5039 20.8633C45.2669 19.5768 43.8568 18.6367 42.2734 18.043C40.6901 17.4492 38.9336 17.1523 37.0039 17.1523C34.5794 17.1523 32.4271 17.6224 30.5469 18.5625C28.7161 19.5026 27.1576 21.0117 25.8711 23.0898C24.5846 25.1185 23.5951 27.8398 22.9023 31.2539C22.2591 34.6185 21.9375 38.7253 21.9375 43.5742V67.9922C21.9375 71.901 22.1354 75.3398 22.5312 78.3086C22.9766 81.2773 23.6198 83.8255 24.4609 85.9531C25.3516 88.0312 26.3906 89.7383 27.5781 91.0742C28.8151 92.3607 30.2253 93.3008 31.8086 93.8945C33.4414 94.4883 35.2227 94.7852 37.1523 94.7852C39.5273 94.7852 41.6302 94.3151 43.4609 93.375C45.3411 92.3854 46.9245 90.8516 48.2109 88.7734C49.5469 86.6458 50.5365 83.875 51.1797 80.4609C51.8229 77.0469 52.1445 72.8906 52.1445 67.9922ZM110.035 46.6914H121.465C125.126 46.6914 128.145 46.0729 130.52 44.8359C132.895 43.5495 134.651 41.7682 135.789 39.4922C136.977 37.1667 137.57 34.4701 137.57 31.4023C137.57 28.6315 137.026 26.1823 135.938 24.0547C134.898 21.8776 133.29 20.1953 131.113 19.0078C128.936 17.7708 126.19 17.1523 122.875 17.1523C120.253 17.1523 117.828 17.6719 115.602 18.7109C113.375 19.75 111.594 21.2096 110.258 23.0898C108.922 24.9701 108.254 27.2461 108.254 29.918H86.8047C86.8047 23.9805 88.388 18.8099 91.5547 14.4062C94.7708 10.0026 99.0755 6.5638 104.469 4.08984C109.862 1.61589 115.799 0.378906 122.281 0.378906C129.604 0.378906 136.012 1.56641 141.504 3.94141C146.996 6.26693 151.276 9.70573 154.344 14.2578C157.411 18.8099 158.945 24.4505 158.945 31.1797C158.945 34.5938 158.154 37.9089 156.57 41.125C154.987 44.2917 152.711 47.1615 149.742 49.7344C146.823 52.2578 143.26 54.2865 139.055 55.8203C134.849 57.3047 130.124 58.0469 124.879 58.0469H110.035V46.6914ZM110.035 62.9453V51.8867H124.879C130.767 51.8867 135.938 52.5547 140.391 53.8906C144.844 55.2266 148.579 57.1562 151.598 59.6797C154.616 62.1536 156.892 65.0977 158.426 68.5117C159.96 71.8763 160.727 75.612 160.727 79.7188C160.727 84.7656 159.762 89.2682 157.832 93.2266C155.902 97.1354 153.181 100.451 149.668 103.172C146.204 105.893 142.147 107.971 137.496 109.406C132.845 110.792 127.773 111.484 122.281 111.484C117.729 111.484 113.251 110.866 108.848 109.629C104.493 108.342 100.535 106.438 96.9727 103.914C93.4596 101.341 90.6393 98.125 88.5117 94.2656C86.4336 90.3568 85.3945 85.7305 85.3945 80.3867H106.844C106.844 83.1576 107.536 85.6315 108.922 87.8086C110.307 89.9857 112.212 91.6927 114.637 92.9297C117.111 94.1667 119.857 94.7852 122.875 94.7852C126.289 94.7852 129.208 94.1667 131.633 92.9297C134.107 91.6432 135.987 89.862 137.273 87.5859C138.609 85.2604 139.277 82.5638 139.277 79.4961C139.277 75.5378 138.56 72.3711 137.125 69.9961C135.69 67.5716 133.637 65.7904 130.965 64.6523C128.293 63.5143 125.126 62.9453 121.465 62.9453H110.035Z" fill="#2C3038"/>
</svg>
