<svg width="700" height="180" viewBox="0 0 700 180" fill="none" xmlns="http://www.w3.org/2000/svg">
<g clip-path="url(#clip0_34_17)">
<mask id="mask0_34_17" style="mask-type:alpha" maskUnits="userSpaceOnUse" x="0" y="20" width="50" height="50">
<path d="M40 30V20H10V30H0V40V59.9999H20V70H40V59.9999H30V50.0001L20 49.9999V40H30V50.0001H40V40H50V30H40Z" fill="#D9D9D9"/>
<path d="M40 50.0001V59.9999H50V49.9999L40 50.0001Z" fill="#D9D9D9"/>
</mask>
<g mask="url(#mask0_34_17)">
<path d="M50 20H0V70H50V20Z" fill="white"/>
</g>
</g>
<g clip-path="url(#clip1_34_17)">
<mask id="mask1_34_17" style="mask-type:alpha" maskUnits="userSpaceOnUse" x="130" y="20" width="50" height="50">
<path d="M170 30V20H140V30H130V40V59.9999H150V70H170V59.9999H160V50.0001L150 49.9999V40H160V50.0001H170V40H180V30H170Z" fill="#D9D9D9"/>
<path d="M170 50.0001V59.9999H180V49.9999L170 50.0001Z" fill="#D9D9D9"/>
</mask>
<g mask="url(#mask1_34_17)">
<path d="M180 20H130V70H180V20Z" fill="white"/>
</g>
</g>
<g clip-path="url(#clip2_34_17)">
<mask id="mask2_34_17" style="mask-type:alpha" maskUnits="userSpaceOnUse" x="260" y="20" width="50" height="50">
<path d="M300 30V20H270V30H260V40V59.9999H280V70H300V59.9999H290V50.0001L280 49.9999V40H290V50.0001H300V40H310V30H300Z" fill="#D9D9D9"/>
<path d="M300 50.0001V59.9999H310V49.9999L300 50.0001Z" fill="#D9D9D9"/>
</mask>
<g mask="url(#mask2_34_17)">
<path d="M310 20H260V70H310V20Z" fill="white"/>
</g>
</g>
<g clip-path="url(#clip3_34_17)">
<mask id="mask3_34_17" style="mask-type:alpha" maskUnits="userSpaceOnUse" x="390" y="20" width="50" height="50">
<path d="M430 30V20H400V30H390V40V59.9999H410V70H430V59.9999H420V50.0001L410 49.9999V40H420V50.0001H430V40H440V30H430Z" fill="#D9D9D9"/>
<path d="M430 50.0001V59.9999H440V49.9999L430 50.0001Z" fill="#D9D9D9"/>
</mask>
<g mask="url(#mask3_34_17)">
<path d="M440 20H390V70H440V20Z" fill="white"/>
</g>
</g>
<g clip-path="url(#clip4_34_17)">
<mask id="mask4_34_17" style="mask-type:alpha" maskUnits="userSpaceOnUse" x="520" y="20" width="50" height="50">
<path d="M560 30V20H530V30H520V40V59.9999H540V70H560V59.9999H550V50.0001L540 49.9999V40H550V50.0001H560V40H570V30H560Z" fill="#D9D9D9"/>
<path d="M560 50.0001V59.9999H570V49.9999L560 50.0001Z" fill="#D9D9D9"/>
</mask>
<g mask="url(#mask4_34_17)">
<path d="M570 20H520V70H570V20Z" fill="white"/>
</g>
</g>
<g clip-path="url(#clip5_34_17)">
<mask id="mask5_34_17" style="mask-type:alpha" maskUnits="userSpaceOnUse" x="650" y="20" width="50" height="50">
<path d="M690 30V20H660V30H650V40V59.9999H670V70H690V59.9999H680V50.0001L670 49.9999V40H680V50.0001H690V40H700V30H690Z" fill="#D9D9D9"/>
<path d="M690 50.0001V59.9999H700V49.9999L690 50.0001Z" fill="#D9D9D9"/>
</mask>
<g mask="url(#mask5_34_17)">
<path d="M700 20H650V70H700V20Z" fill="white"/>
</g>
</g>
<g clip-path="url(#clip6_34_17)">
<mask id="mask6_34_17" style="mask-type:alpha" maskUnits="userSpaceOnUse" x="0" y="110" width="50" height="50">
<path d="M40 120V110H10V120H0V130V150H20V160H40V150H30V140L20 140V130H30V140H40V130H50V120H40Z" fill="#D9D9D9"/>
<path d="M40 140V150H50V140L40 140Z" fill="#D9D9D9"/>
</mask>
<g mask="url(#mask6_34_17)">
<path d="M50 110H0V160H50V110Z" fill="white"/>
</g>
</g>
<g clip-path="url(#clip7_34_17)">
<mask id="mask7_34_17" style="mask-type:alpha" maskUnits="userSpaceOnUse" x="130" y="110" width="50" height="50">
<path d="M170 120V110H140V120H130V130V150H150V160H170V150H160V140L150 140V130H160V140H170V130H180V120H170Z" fill="#D9D9D9"/>
<path d="M170 140V150H180V140L170 140Z" fill="#D9D9D9"/>
</mask>
<g mask="url(#mask7_34_17)">
<path d="M180 110H130V160H180V110Z" fill="white"/>
</g>
</g>
<g clip-path="url(#clip8_34_17)">
<mask id="mask8_34_17" style="mask-type:alpha" maskUnits="userSpaceOnUse" x="260" y="110" width="50" height="50">
<path d="M300 120V110H270V120H260V130V150H280V160H300V150H290V140L280 140V130H290V140H300V130H310V120H300Z" fill="#D9D9D9"/>
<path d="M300 140V150H310V140L300 140Z" fill="#D9D9D9"/>
</mask>
<g mask="url(#mask8_34_17)">
<path d="M310 110H260V160H310V110Z" fill="white"/>
</g>
</g>
<g clip-path="url(#clip9_34_17)">
<mask id="mask9_34_17" style="mask-type:alpha" maskUnits="userSpaceOnUse" x="390" y="110" width="50" height="50">
<path d="M430 120V110H400V120H390V130V150H410V160H430V150H420V140L410 140V130H420V140H430V130H440V120H430Z" fill="#D9D9D9"/>
<path d="M430 140V150H440V140L430 140Z" fill="#D9D9D9"/>
</mask>
<g mask="url(#mask9_34_17)">
<path d="M440 110H390V160H440V110Z" fill="white"/>
</g>
</g>
<g clip-path="url(#clip10_34_17)">
<mask id="mask10_34_17" style="mask-type:alpha" maskUnits="userSpaceOnUse" x="520" y="110" width="50" height="50">
<path d="M560 120V110H530V120H520V130V150H540V160H560V150H550V140L540 140V130H550V140H560V130H570V120H560Z" fill="#D9D9D9"/>
<path d="M560 140V150H570V140L560 140Z" fill="#D9D9D9"/>
</mask>
<g mask="url(#mask10_34_17)">
<path d="M570 110H520V160H570V110Z" fill="white"/>
</g>
</g>
<g clip-path="url(#clip11_34_17)">
<mask id="mask11_34_17" style="mask-type:alpha" maskUnits="userSpaceOnUse" x="650" y="110" width="50" height="50">
<path d="M690 120V110H660V120H650V130V150H670V160H690V150H680V140L670 140V130H680V140H690V130H700V120H690Z" fill="#D9D9D9"/>
<path d="M690 140V150H700V140L690 140Z" fill="#D9D9D9"/>
</mask>
<g mask="url(#mask11_34_17)">
<path d="M700 110H650V160H700V110Z" fill="white"/>
</g>
</g>
<defs>
<clipPath id="clip0_34_17">
<rect width="50" height="50" fill="white" transform="translate(0 20)"/>
</clipPath>
<clipPath id="clip1_34_17">
<rect width="50" height="50" fill="white" transform="translate(130 20)"/>
</clipPath>
<clipPath id="clip2_34_17">
<rect width="50" height="50" fill="white" transform="translate(260 20)"/>
</clipPath>
<clipPath id="clip3_34_17">
<rect width="50" height="50" fill="white" transform="translate(390 20)"/>
</clipPath>
<clipPath id="clip4_34_17">
<rect width="50" height="50" fill="white" transform="translate(520 20)"/>
</clipPath>
<clipPath id="clip5_34_17">
<rect width="50" height="50" fill="white" transform="translate(650 20)"/>
</clipPath>
<clipPath id="clip6_34_17">
<rect width="50" height="50" fill="white" transform="translate(0 110)"/>
</clipPath>
<clipPath id="clip7_34_17">
<rect width="50" height="50" fill="white" transform="translate(130 110)"/>
</clipPath>
<clipPath id="clip8_34_17">
<rect width="50" height="50" fill="white" transform="translate(260 110)"/>
</clipPath>
<clipPath id="clip9_34_17">
<rect width="50" height="50" fill="white" transform="translate(390 110)"/>
</clipPath>
<clipPath id="clip10_34_17">
<rect width="50" height="50" fill="white" transform="translate(520 110)"/>
</clipPath>
<clipPath id="clip11_34_17">
<rect width="50" height="50" fill="white" transform="translate(650 110)"/>
</clipPath>
</defs>
</svg>
