<svg width="36" height="36" viewBox="0 0 36 36" fill="none" xmlns="http://www.w3.org/2000/svg">
<mask id="mask0_54_26" style="mask-type:alpha" maskUnits="userSpaceOnUse" x="0" y="0" width="36" height="36">
<rect width="36" height="36" fill="#D9D9D9"/>
</mask>
<g mask="url(#mask0_54_26)">
<path d="M4.5 27.75V24.75H7.5V27.75H4.5ZM4.5 22.5V19.5H7.5V22.5H4.5ZM4.5 17.25V14.25H7.5V17.25H4.5ZM9.75 33V30H12.75V33H9.75ZM13.5 27C12.675 27 11.9688 26.7063 11.3813 26.1188C10.7938 25.5313 10.5 24.825 10.5 24V6C10.5 5.175 10.7938 4.46875 11.3813 3.88125C11.9688 3.29375 12.675 3 13.5 3H27C27.825 3 28.5313 3.29375 29.1188 3.88125C29.7063 4.46875 30 5.175 30 6V24C30 24.825 29.7063 25.5313 29.1188 26.1188C28.5313 26.7063 27.825 27 27 27H13.5ZM15 33V30H18V33H15ZM7.5 33C6.675 33 5.96875 32.7063 5.38125 32.1188C4.79375 31.5313 4.5 30.825 4.5 30H7.5V33ZM20.25 33V30H23.25C23.25 30.825 22.9563 31.5313 22.3688 32.1188C21.7813 32.7063 21.075 33 20.25 33ZM4.5 12C4.5 11.175 4.79375 10.4688 5.38125 9.88125C5.96875 9.29375 6.675 9 7.5 9V12H4.5Z" fill="#96A1B2"/>
</g>
</svg>
