<svg width="250" height="251" viewBox="0 0 250 251" fill="none" xmlns="http://www.w3.org/2000/svg">
<g clip-path="url(#clip0_13_1192)">
<rect width="250" height="250" transform="translate(0 0.599976)" fill="white"/>
<g clip-path="url(#clip1_13_1192)">
<path d="M208.294 117.928C223.625 117.928 236.048 130.35 236.048 145.682C236.048 161.002 223.625 173.435 208.294 173.435C192.974 173.435 180.541 161.002 180.541 145.682C180.541 130.35 192.974 117.928 208.294 117.928Z" fill="#B27214"/>
<path d="M74.4448 173.435C87.0637 173.435 97.2914 183.663 97.2914 196.281C97.2914 208.911 87.0637 219.138 74.4448 219.138C61.8155 219.138 51.5879 208.911 51.5879 196.281C51.5879 183.663 61.8155 173.435 74.4448 173.435Z" fill="#B27214"/>
<path d="M85.0556 34.6788C95.4178 34.6788 103.824 43.0845 103.824 53.457C103.824 63.8193 95.4178 72.225 85.0556 72.225C74.6831 72.225 66.2773 63.8193 66.2773 53.457C66.2773 43.0845 74.6831 34.6788 85.0556 34.6788Z" fill="#B27214"/>
<path d="M125.003 -55.6414C225.095 -55.6414 306.233 25.5069 306.233 125.599C306.233 225.691 225.095 306.839 125.003 306.839C24.9006 306.839 -56.2373 225.691 -56.2373 125.599C-56.2373 25.5069 24.9006 -55.6414 125.003 -55.6414ZM236.047 145.682C236.047 130.35 223.625 117.928 208.294 117.928C192.973 117.928 180.541 130.35 180.541 145.682C180.541 161.002 192.973 173.435 208.294 173.435C223.625 173.435 236.047 161.002 236.047 145.682ZM103.823 53.4569C103.823 43.0843 95.4174 34.6786 85.0552 34.6786C74.6827 34.6786 66.2769 43.0843 66.2769 53.4569C66.2769 63.8191 74.6827 72.2248 85.0552 72.2248C95.4174 72.2248 103.823 63.8191 103.823 53.4569ZM97.2911 196.281C97.2911 183.663 87.0635 173.435 74.4446 173.435C61.8153 173.435 51.5877 183.663 51.5877 196.281C51.5877 208.911 61.8153 219.138 74.4446 219.138C87.0635 219.138 97.2911 208.911 97.2911 196.281Z" fill="#FFBB33"/>
<path d="M31.7535 125.599C31.7535 40.6806 90.1597 -30.5909 168.996 -50.2522C154.911 -53.7656 140.177 -55.6414 125.003 -55.6414C24.9006 -55.6414 -56.2373 25.5069 -56.2373 125.599C-56.2373 225.691 24.9006 306.839 125.003 306.839C140.177 306.839 154.911 304.964 168.996 301.45C90.1597 281.79 31.7535 210.517 31.7535 125.599Z" fill="#E09B2D"/>
<path d="M270.031 194.586C269.019 194.586 267.993 194.388 267.005 193.969C263.057 192.296 261.212 187.739 262.886 183.791C270.699 165.349 274.661 145.77 274.661 125.599C274.661 70.6111 244.519 20.1354 195.999 -6.12931C192.228 -8.1707 190.826 -12.8818 192.868 -16.653C194.909 -20.4242 199.619 -21.8269 203.392 -19.7845C256.93 9.19661 290.19 64.9051 290.19 125.599C290.19 147.863 285.813 169.48 277.184 189.848C275.928 192.809 273.054 194.586 270.031 194.586Z" fill="white"/>
<path d="M125 -63.4C20.7846 -63.4 -64.0002 21.3848 -64.0002 125.6C-64.0002 229.815 20.7846 314.6 125 314.6C229.215 314.6 314 229.815 314 125.6C314 21.3848 229.215 -63.4 125 -63.4ZM125 299.072C29.3476 299.072 -48.4725 221.253 -48.4725 125.6C-48.4725 29.9468 29.3476 -47.8722 125 -47.8722C220.652 -47.8722 298.472 29.9468 298.472 125.6C298.472 221.253 220.653 299.072 125 299.072Z" fill="#333333"/>
<path d="M85.0506 26.9168C70.4182 26.9168 58.5146 38.8214 58.5146 53.4528C58.5146 68.0841 70.4182 79.9887 85.0506 79.9887C99.683 79.9887 111.588 68.0841 111.588 53.4528C111.588 38.8214 99.683 26.9168 85.0506 26.9168ZM85.0506 64.4609C78.9813 64.4609 74.0424 59.5221 74.0424 53.4528C74.0424 47.3835 78.9813 42.4446 85.0506 42.4446C91.1209 42.4446 96.0598 47.3835 96.0598 53.4528C96.0598 59.5221 91.122 64.4609 85.0506 64.4609Z" fill="#333333"/>
<path d="M208.295 110.166C188.712 110.166 172.781 126.098 172.781 145.681C172.781 165.263 188.712 181.195 208.295 181.195C227.877 181.195 243.81 165.263 243.81 145.681C243.81 126.098 227.877 110.166 208.295 110.166ZM208.295 165.668C197.274 165.668 188.308 156.702 188.308 145.682C188.308 134.661 197.274 125.695 208.295 125.695C219.315 125.695 228.282 134.661 228.282 145.682C228.282 156.702 219.316 165.668 208.295 165.668Z" fill="#333333"/>
<path d="M74.4406 165.668C57.5578 165.668 43.824 179.403 43.824 196.285C43.824 213.167 57.5588 226.901 74.4406 226.901C91.3225 226.901 105.057 213.167 105.057 196.285C105.057 179.403 91.3235 165.668 74.4406 165.668ZM74.4406 211.374C66.1208 211.374 59.3518 204.604 59.3518 196.285C59.3518 187.965 66.1208 181.196 74.4406 181.196C82.7604 181.196 89.5295 187.965 89.5295 196.285C89.5295 204.604 82.7604 211.374 74.4406 211.374Z" fill="#333333"/>
<path d="M201.762 50.6101C206.05 50.6101 209.526 47.1341 209.526 42.8462C209.526 38.5584 206.05 35.0823 201.762 35.0823C197.474 35.0823 193.998 38.5584 193.998 42.8462C193.998 47.1341 197.474 50.6101 201.762 50.6101Z" fill="#333333"/>
<path d="M28.7307 117.535C33.0186 117.535 36.4946 114.059 36.4946 109.771C36.4946 105.483 33.0186 102.007 28.7307 102.007C24.4428 102.007 20.9668 105.483 20.9668 109.771C20.9668 114.059 24.4428 117.535 28.7307 117.535Z" fill="#333333"/>
<path d="M149.527 223.641C153.815 223.641 157.291 220.165 157.291 215.878C157.291 211.59 153.815 208.114 149.527 208.114C145.239 208.114 141.763 211.59 141.763 215.878C141.763 220.165 145.239 223.641 149.527 223.641Z" fill="#333333"/>
</g>
</g>
<defs>
<clipPath id="clip0_13_1192">
<rect width="250" height="250" fill="white" transform="translate(0 0.599976)"/>
</clipPath>
<clipPath id="clip1_13_1192">
<rect width="378" height="378" fill="white" transform="translate(-64.0002 -63.4)"/>
</clipPath>
</defs>
</svg>
