<svg width="36" height="36" viewBox="0 0 36 36" fill="none" xmlns="http://www.w3.org/2000/svg">
<mask id="mask0_54_23" style="mask-type:alpha" maskUnits="userSpaceOnUse" x="0" y="0" width="36" height="36">
<rect width="36" height="36" fill="#D9D9D9"/>
</mask>
<g mask="url(#mask0_54_23)">
<path d="M25.9125 30.375L31.125 25.2L29.55 23.625L25.9125 27.1875L24.45 25.725L22.875 27.3375L25.9125 30.375ZM9 13.5H27V10.5H9V13.5ZM27 34.5C24.925 34.5 23.1563 33.7688 21.6938 32.3063C20.2313 30.8438 19.5 29.075 19.5 27C19.5 24.925 20.2313 23.1563 21.6938 21.6938C23.1563 20.2313 24.925 19.5 27 19.5C29.075 19.5 30.8438 20.2313 32.3063 21.6938C33.7688 23.1563 34.5 24.925 34.5 27C34.5 29.075 33.7688 30.8438 32.3063 32.3063C30.8438 33.7688 29.075 34.5 27 34.5ZM4.5 33V7.5C4.5 6.675 4.79375 5.96875 5.38125 5.38125C5.96875 4.79375 6.675 4.5 7.5 4.5H28.5C29.325 4.5 30.0313 4.79375 30.6188 5.38125C31.2063 5.96875 31.5 6.675 31.5 7.5V17.5125C30.8 17.1625 30.0688 16.9063 29.3063 16.7438C28.5438 16.5813 27.775 16.5 27 16.5H9V19.5H19.65C19.225 19.925 18.8313 20.3875 18.4688 20.8875C18.1062 21.3875 17.7875 21.925 17.5125 22.5H9V25.5H16.6125C16.5625 25.75 16.5312 25.9938 16.5187 26.2313C16.5062 26.4688 16.5 26.725 16.5 27C16.5 28.05 16.6438 29.0563 16.9313 30.0188C17.2188 30.9813 17.65 31.9 18.225 32.775L18 33L15.75 30.75L13.5 33L11.25 30.75L9 33L6.75 30.75L4.5 33Z" fill="#96A1B2"/>
</g>
</svg>
