<svg width="163" height="112" viewBox="0 0 163 112" fill="none" xmlns="http://www.w3.org/2000/svg">
<path d="M73.5938 46.4688V65.1719C73.5938 73.2865 72.7279 80.2878 70.9961 86.1758C69.2643 92.0143 66.7656 96.8138 63.5 100.574C60.2839 104.285 56.4492 107.031 51.9961 108.812C47.543 110.594 42.5951 111.484 37.1523 111.484C32.7982 111.484 28.7409 110.94 24.9805 109.852C21.2201 108.714 17.8307 106.957 14.8125 104.582C11.8438 102.207 9.27083 99.2135 7.09375 95.6016C4.96615 91.9401 3.33333 87.5859 2.19531 82.5391C1.05729 77.4922 0.488281 71.7031 0.488281 65.1719V46.4688C0.488281 38.3542 1.35417 31.4023 3.08594 25.6133C4.86719 19.7747 7.36589 15 10.582 11.2891C13.8477 7.57812 17.707 4.85677 22.1602 3.125C26.6133 1.34375 31.5612 0.453125 37.0039 0.453125C41.3581 0.453125 45.3906 1.02214 49.1016 2.16016C52.862 3.2487 56.2513 4.95573 59.2695 7.28125C62.2878 9.60677 64.8607 12.6003 66.9883 16.2617C69.1159 19.8737 70.7487 24.2031 71.8867 29.25C73.0247 34.2474 73.5938 39.987 73.5938 46.4688ZM52.1445 67.9922V43.5742C52.1445 39.6654 51.9219 36.2513 51.4766 33.332C51.0807 30.4128 50.4622 27.9388 49.6211 25.9102C48.7799 23.832 47.7409 22.1497 46.5039 20.8633C45.2669 19.5768 43.8568 18.6367 42.2734 18.043C40.6901 17.4492 38.9336 17.1523 37.0039 17.1523C34.5794 17.1523 32.4271 17.6224 30.5469 18.5625C28.7161 19.5026 27.1576 21.0117 25.8711 23.0898C24.5846 25.1185 23.5951 27.8398 22.9023 31.2539C22.2591 34.6185 21.9375 38.7253 21.9375 43.5742V67.9922C21.9375 71.901 22.1354 75.3398 22.5312 78.3086C22.9766 81.2773 23.6198 83.8255 24.4609 85.9531C25.3516 88.0312 26.3906 89.7383 27.5781 91.0742C28.8151 92.3607 30.2253 93.3008 31.8086 93.8945C33.4414 94.4883 35.2227 94.7852 37.1523 94.7852C39.5273 94.7852 41.6302 94.3151 43.4609 93.375C45.3411 92.3854 46.9245 90.8516 48.2109 88.7734C49.5469 86.6458 50.5365 83.875 51.1797 80.4609C51.8229 77.0469 52.1445 72.8906 52.1445 67.9922ZM162.062 93.3008V110H88.1406V95.75L123.098 58.2695C126.611 54.3607 129.382 50.9219 131.41 47.9531C133.439 44.9349 134.898 42.2383 135.789 39.8633C136.729 37.4388 137.199 35.138 137.199 32.9609C137.199 29.6953 136.655 26.8997 135.566 24.5742C134.478 22.1992 132.87 20.3685 130.742 19.082C128.664 17.7956 126.091 17.1523 123.023 17.1523C119.758 17.1523 116.938 17.944 114.562 19.5273C112.237 21.1107 110.456 23.3125 109.219 26.1328C108.031 28.9531 107.438 32.1445 107.438 35.707H85.9883C85.9883 29.2747 87.5221 23.3867 90.5898 18.043C93.6576 12.6497 97.987 8.36979 103.578 5.20312C109.169 1.98698 115.799 0.378906 123.469 0.378906C131.039 0.378906 137.422 1.61589 142.617 4.08984C147.862 6.51432 151.82 10.0273 154.492 14.6289C157.214 19.181 158.574 24.6237 158.574 30.957C158.574 34.5195 158.005 38.0078 156.867 41.4219C155.729 44.7865 154.096 48.151 151.969 51.5156C149.891 54.8307 147.367 58.1953 144.398 61.6094C141.43 65.0234 138.139 68.5612 134.527 72.2227L115.75 93.3008H162.062Z" fill="#2C3038"/>
</svg>
