<svg width="250" height="251" viewBox="0 0 250 251" fill="none" xmlns="http://www.w3.org/2000/svg">
<rect width="250" height="250" transform="translate(0 0.599976)" fill="#00040D"/>
<path d="M25.4211 108.975V64.8321H37.0638L41.0918 88.3382H41.9195L45.9475 64.8321H57.2039V108.975H49.9755V87.9519L50.4721 71.6743H49.5893L45.7268 94.6285H36.9534L33.0357 71.6743H32.1529L32.6495 87.9519V108.975H25.4211ZM81.4381 108.975V101.14H92.3635V72.6675H81.4381V64.8321H111.566V72.6675H100.64V101.14H111.566V108.975H81.4381ZM138.89 64.8321H147.111V108.975H138.89V64.8321ZM158.699 108.975L145.29 87.676L159.858 64.8321H168.962L154.616 87.2898L168.245 108.975H158.699ZM194.134 108.975V64.8321H222.055V72.1709H202.411V83.3721H219.296V90.3798H202.411V101.636H221.503V108.975H194.134Z" fill="white"/>
</svg>
