<svg width="345" height="346" viewBox="0 0 345 346" fill="none" xmlns="http://www.w3.org/2000/svg">
<g filter="url(#filter0_d_3_133)">
<mask id="mask0_3_133" style="mask-type:alpha" maskUnits="userSpaceOnUse" x="10" y="10" width="301" height="302">
<rect x="10" y="10.7862" width="301" height="301" rx="16" fill="#2E6CE6"/>
</mask>
<g mask="url(#mask0_3_133)">
<g filter="url(#filter1_d_3_133)">
<rect x="10" y="10.7862" width="301" height="301" rx="16" fill="#2265E6"/>
</g>
<path d="M10 10.7862H253.011V108.313C253.011 117.15 245.848 124.313 237.011 124.313H10V10.7862Z" fill="#2E6CE6"/>
<path d="M10 10.7862H218.031V81.2827C218.031 90.1193 210.867 97.2827 202.031 97.2827H10V10.7862Z" fill="#3D7AF2"/>
<path d="M10 10.9337H187.025V60.4547C187.025 69.2912 179.861 76.4547 171.025 76.4547H10V10.9337Z" fill="#4D89FF"/>
</g>
</g>
<defs>
<filter id="filter0_d_3_133" x="0" y="0.786194" width="345" height="345" filterUnits="userSpaceOnUse" color-interpolation-filters="sRGB">
<feFlood flood-opacity="0" result="BackgroundImageFix"/>
<feColorMatrix in="SourceAlpha" type="matrix" values="0 0 0 0 0 0 0 0 0 0 0 0 0 0 0 0 0 0 127 0" result="hardAlpha"/>
<feOffset dx="12" dy="12"/>
<feGaussianBlur stdDeviation="11"/>
<feComposite in2="hardAlpha" operator="out"/>
<feColorMatrix type="matrix" values="0 0 0 0 0 0 0 0 0 0 0 0 0 0 0 0 0 0 0.1 0"/>
<feBlend mode="normal" in2="BackgroundImageFix" result="effect1_dropShadow_3_133"/>
<feBlend mode="normal" in="SourceGraphic" in2="effect1_dropShadow_3_133" result="shape"/>
</filter>
<filter id="filter1_d_3_133" x="4" y="4.78619" width="333" height="333" filterUnits="userSpaceOnUse" color-interpolation-filters="sRGB">
<feFlood flood-opacity="0" result="BackgroundImageFix"/>
<feColorMatrix in="SourceAlpha" type="matrix" values="0 0 0 0 0 0 0 0 0 0 0 0 0 0 0 0 0 0 127 0" result="hardAlpha"/>
<feOffset dx="10" dy="10"/>
<feGaussianBlur stdDeviation="8"/>
<feComposite in2="hardAlpha" operator="out"/>
<feColorMatrix type="matrix" values="0 0 0 0 0 0 0 0 0 0 0 0 0 0 0 0 0 0 0.1 0"/>
<feBlend mode="normal" in2="BackgroundImageFix" result="effect1_dropShadow_3_133"/>
<feBlend mode="normal" in="SourceGraphic" in2="effect1_dropShadow_3_133" result="shape"/>
</filter>
</defs>
</svg>
