<svg width="27" height="27" viewBox="0 0 27 27" fill="none" xmlns="http://www.w3.org/2000/svg">
<path d="M13.9195 26.834C12.1516 26.834 10.4808 26.4944 8.90695 25.8153C7.33312 25.1362 5.95871 24.2091 4.78372 23.0342C3.60874 21.8592 2.68169 20.4848 2.00257 18.9109C1.32345 17.3371 0.983887 15.6662 0.983887 13.8984C0.983887 12.109 1.32345 10.4327 2.00257 8.86966C2.68169 7.30661 3.60874 5.93759 4.78372 4.7626C5.95871 3.58762 7.33312 2.66057 8.90695 1.98145C10.4808 1.30233 12.1516 0.962769 13.9195 0.962769C15.7089 0.962769 17.3852 1.30233 18.9482 1.98145C20.5113 2.66057 21.8803 3.58762 23.0553 4.7626C24.2303 5.93759 25.1573 7.30661 25.8364 8.86966C26.5156 10.4327 26.8551 12.109 26.8551 13.8984V15.774C26.8551 17.046 26.4185 18.1294 25.5454 19.0241C24.6722 19.9188 23.5997 20.3662 22.3276 20.3662C21.5515 20.3662 20.8293 20.1937 20.1609 19.8488C19.4926 19.5038 18.9428 19.0511 18.5116 18.4905C17.9295 19.0726 17.245 19.5308 16.4581 19.8649C15.6712 20.1991 14.825 20.3662 13.9195 20.3662C12.1301 20.3662 10.6047 19.7356 9.34353 18.4744C8.0823 17.2131 7.45169 15.6878 7.45169 13.8984C7.45169 12.109 8.0823 10.5836 9.34353 9.32241C10.6047 8.06119 12.1301 7.43058 13.9195 7.43058C15.7089 7.43058 17.2343 8.06119 18.4955 9.32241C19.7567 10.5836 20.3873 12.109 20.3873 13.8984V15.774C20.3873 16.3993 20.5813 16.8897 20.9694 17.2455C21.3575 17.6012 21.8102 17.7791 22.3276 17.7791C22.8451 17.7791 23.2978 17.6012 23.6859 17.2455C24.074 16.8897 24.268 16.3993 24.268 15.774V13.8984C24.268 11.0741 23.2493 8.64329 21.212 6.60593C19.1746 4.56857 16.7438 3.54989 13.9195 3.54989C11.0952 3.54989 8.66441 4.56857 6.62705 6.60593C4.58969 8.64329 3.57101 11.0741 3.57101 13.8984C3.57101 16.7227 4.58969 19.1535 6.62705 21.1908C8.66441 23.2282 11.0952 24.2469 13.9195 24.2469H20.3873V26.834H13.9195ZM13.9195 17.7791C14.9975 17.7791 15.9137 17.4018 16.6683 16.6472C17.4229 15.8926 17.8002 14.9763 17.8002 13.8984C17.8002 12.8204 17.4229 11.9041 16.6683 11.1496C15.9137 10.395 14.9975 10.0177 13.9195 10.0177C12.8415 10.0177 11.9253 10.395 11.1707 11.1496C10.4161 11.9041 10.0388 12.8204 10.0388 13.8984C10.0388 14.9763 10.4161 15.8926 11.1707 16.6472C11.9253 17.4018 12.8415 17.7791 13.9195 17.7791Z" fill="#CC3100"/>
</svg>
