<svg width="32" height="24" viewBox="0 0 32 24" fill="none" xmlns="http://www.w3.org/2000/svg">
<path d="M26.7988 2.20623C24.759 1.28214 22.6057 0.626553 20.3938 0.256226C20.0912 0.791664 19.8173 1.34256 19.5734 1.9066C17.2173 1.55527 14.8213 1.55527 12.4652 1.9066C12.2212 1.34262 11.9473 0.791728 11.6447 0.256226C9.43144 0.62968 7.27671 1.28682 5.23494 2.21107C1.18149 8.14566 0.0826672 13.9329 0.63208 19.6379C3.00588 21.3735 5.66284 22.6934 8.48746 23.5403C9.12348 22.6938 9.68628 21.7958 10.1699 20.8557C9.25135 20.5163 8.36479 20.0974 7.52049 19.6041C7.7427 19.4446 7.96002 19.2803 8.17002 19.1208C10.6267 20.2641 13.3081 20.8569 16.023 20.8569C18.7378 20.8569 21.4192 20.2641 23.8759 19.1208C24.0883 19.2924 24.3057 19.4567 24.5254 19.6041C23.6795 20.0982 22.7913 20.5179 21.8711 20.8582C22.3542 21.7978 22.917 22.6951 23.5536 23.5403C26.3806 22.6968 29.0396 21.3775 31.4138 19.6403C32.0585 13.0243 30.3126 7.29027 26.7988 2.20623ZM10.8658 16.1293C9.33477 16.1293 8.06991 14.7544 8.06991 13.063C8.06991 11.3715 9.29082 9.98452 10.8609 9.98452C12.431 9.98452 13.6861 11.3715 13.6593 13.063C13.6324 14.7544 12.4261 16.1293 10.8658 16.1293ZM21.1801 16.1293C19.6466 16.1293 18.3867 14.7544 18.3867 13.063C18.3867 11.3715 19.6076 9.98452 21.1801 9.98452C22.7527 9.98452 23.998 11.3715 23.9711 13.063C23.9443 14.7544 22.7404 16.1293 21.1801 16.1293Z" fill="#5865F2"/>
</svg>
