<svg width="34" height="28" viewBox="0 0 34 28" fill="none" xmlns="http://www.w3.org/2000/svg">
<path fill-rule="evenodd" clip-rule="evenodd" d="M3.13809 12.0432C11.8844 8.2448 17.707 5.72085 20.6308 4.49636C28.9523 1.02281 30.7016 0.423061 31.8261 0.398071C32.076 0.398071 32.6258 0.448051 33.0006 0.747926C33.3005 0.997822 33.3755 1.32269 33.4255 1.57258C33.4755 1.82248 33.5254 2.34726 33.4754 2.74709C33.0256 7.49511 31.0765 19.0153 30.0769 24.3131C29.652 26.5622 28.8274 27.3119 28.0277 27.3868C26.2784 27.5368 24.954 26.2373 23.2797 25.1378C20.6308 23.4135 19.1564 22.3389 16.5825 20.6396C13.6087 18.6904 15.5329 17.6159 17.2322 15.8666C17.682 15.4168 25.3538 8.41973 25.5038 7.79499C25.5288 7.72002 25.5288 7.42015 25.3538 7.27021C25.1789 7.12027 24.929 7.17025 24.7291 7.22023C24.4542 7.27021 20.256 10.069 12.0844 15.5917C10.8849 16.4164 9.81031 16.8162 8.83572 16.7912C7.76117 16.7663 5.71202 16.1915 4.16267 15.6917C2.28845 15.0919 0.789072 14.7671 0.91402 13.7175C0.988988 13.1678 1.73868 12.618 3.13809 12.0432Z" fill="url(#paint0_linear_9_11)"/>
<defs>
<linearGradient id="paint0_linear_9_11" x1="17.1879" y1="0.398071" x2="17.1879" y2="27.1851" gradientUnits="userSpaceOnUse">
<stop stop-color="#2AABEE"/>
<stop offset="1" stop-color="#229ED9"/>
</linearGradient>
</defs>
</svg>
